<svg xmlns="http://www.w3.org/2000/svg" xmlns:xlink="http://www.w3.org/1999/xlink" width="192.766" height="54.384" viewBox="0 0 192.766 54.384"><defs><style>.a{fill:url(#a);}.b{fill:#fff;font-size:24px;}.b,.c{font-family:SegoeUI, Segoe UI;}.c{fill:#51e8ef;font-size:12px;letter-spacing:0.71em;}.d{clip-path:url(#b);}.e{fill:url(#c);}</style><linearGradient id="a" x1="0.558" y1="0.403" x2="4.032" y2="-1.915" gradientUnits="objectBoundingBox"><stop offset="0" stop-color="#5fc4d4"/><stop offset="0.276" stop-color="#0a1d1e"/><stop offset="0.623" stop-color="#1d5c5f"/><stop offset="1" stop-color="#0b1b1c"/></linearGradient><clipPath id="b"><path class="a" d="M490.625,512.628l-5-10v-8.309l-10.408-10.407,3.535-3.535,11.873,11.872Zm23.945-10-5,10v-20.38l11.871-11.872,3.535,3.535L514.57,494.319Zm-15.957,20.645-5-2V490.449L483.2,480.041l3.535-3.535,11.873,11.872Zm7.968-2-5,2v-34.9L513.453,476.5l3.535,3.535-10.407,10.408Z" transform="translate(-474.983 -468.889)"/></clipPath><linearGradient id="c" y1="0.015" x2="1" y2="1.019" gradientUnits="objectBoundingBox"><stop offset="0" stop-color="#51e8ef"/><stop offset="0.276" stop-color="#146365"/><stop offset="0.586" stop-color="#51e8ef"/><stop offset="1" stop-color="#02190d"/></linearGradient></defs><text class="b" transform="translate(65.766 26)"><tspan x="0" y="0">odyssey</tspan></text><text class="c" transform="translate(65.766 47)"><tspan x="0" y="0">BICYCLE</tspan></text><g class="d" transform="translate(-0.234)"><rect class="e" width="50" height="80" transform="translate(0 -26)"/></g></svg>